<?xml version="1.0" encoding="UTF-8"?>
<!DOCTYPE svg PUBLIC "-//W3C//DTD SVG 1.1//EN" "http://www.w3.org/Graphics/SVG/1.1/DTD/svg11.dtd">
<!-- Creator: CorelDRAW 2020 (64-Bit) -->
<svg xmlns="http://www.w3.org/2000/svg" xml:space="preserve" width="100px" height="65px" version="1.1" style="shape-rendering:geometricPrecision; text-rendering:geometricPrecision; image-rendering:optimizeQuality; fill-rule:evenodd; clip-rule:evenodd"
viewBox="0 0 100 65"
 xmlns:xlink="http://www.w3.org/1999/xlink"
 xmlns:xodm="http://www.corel.com/coreldraw/odm/2003">
 <defs>
  <style type="text/css">
   <![CDATA[
    .fil0 {fill:#fff}
   ]]>
  </style>
 </defs>
 <g id="Capa_x0020_1">
  <metadata id="CorelCorpID_0Corel-Layer"/>
  <g id="_2510992002176">
   <path class="fil0" d="M29.98 29.72c1.93,1.24 4.01,3.52 5.08,5.6 1.07,2.08 2.55,6.86 1.87,8.73 -0.8,0.29 -5.4,-0.82 -6.56,-1.02l-6.8 -1.26c0.03,-0.12 5.64,-11.17 6.41,-12.05zm-29.98 14.47l0 -2.52c0.04,-0.64 0.1,-1.28 0.19,-1.93 1.15,-8.24 7.37,-14.79 15.2,-17.03 7.02,-2.01 10.34,0.26 13.85,0.9l3.54 -6.49c0.48,-0.97 1.62,-2.42 1.37,-3.43 -0.25,-0.99 -1.06,-2.69 -1.07,-3.73l2.92 -1c0.44,0.6 1.46,4.11 1.68,5l26.8 0c-0.84,-3.46 -4.68,-8.04 -2.56,-9.4 0.94,-0.6 11.09,-0.26 13.04,-0.27 6.01,-0.03 8.05,8.23 2.21,10.89 -1.67,0.76 -4.33,0.4 -6.25,0.4l0 -3.23c1.59,0 4.09,0.35 5.37,-0.47 1.32,-0.85 1.36,-2.88 0.12,-3.81 -1.44,-1.07 -8.7,-0.55 -11,-0.52l6.72 15.48c6.67,-1.5 11.08,-1.68 17.26,1.68 4.31,2.34 7.95,6.82 9.51,11.45 3.67,10.87 -2.16,22.91 -12.99,26.64 -10.81,3.73 -23.04,-2.06 -26.7,-12.94 -1.86,-5.52 -1.58,-12.06 1.47,-17.13 3.06,-5.08 4.18,-5.22 7.84,-7.91 0.87,-0.64 -0.23,-2.62 -0.68,-3 -0.73,0.15 -12.46,16.86 -14.65,19.94 -0.75,1.06 -2.62,2.75 -2.05,4.02 0.76,1.73 0.62,4.06 -0.85,5.38 -0.81,0.73 -1.33,0.68 -0.83,1.93 0.29,0.75 0.59,2.01 0.96,2.53l4.38 0.25 0 3.23c-7.25,0 -6.55,0.77 -8.13,-3.96 -1.26,-3.78 -0.55,-1.93 -2.71,-3.33 -2.06,-1.33 -1.26,-2.6 -2.64,-3.41 -0.26,0.37 -0.84,2.94 -2.57,5.73 -3.26,5.25 -8.56,8.56 -14.57,9.6 -11.65,2.04 -23.45,-6.74 -24.18,-19.54zm36.27 3.42c-2.07,7.88 -10.81,12.91 -18.73,11.07 -13.47,-3.11 -15.88,-19.04 -8.63,-26.33 2.37,-2.39 4.22,-3.81 7.52,-4.78 2.79,-0.81 7.91,-1.06 10.44,0.57 -0.14,0.57 -3.15,6.19 -3.66,7.02 -0.62,1.01 -3.56,6.45 -3.79,7.31 -0.57,2.09 1.47,2.19 2.83,2.44 1.54,0.28 3.16,0.59 4.73,0.91 1.5,0.3 3.06,0.58 4.6,0.84 0.85,0.14 4.09,0.68 4.69,0.95zm37.88 -19.94c4.72,-1.2 8.26,-1.08 12.62,1.27 11.08,5.98 11.37,22.96 -1.34,28.74 -7.69,3.5 -17.01,0.06 -20.76,-7.44 -2.01,-4.03 -2.32,-8.45 -0.8,-12.7 0.61,-1.71 1.71,-3.59 2.88,-4.98 0.71,-0.83 3.29,-3.33 4.29,-3.37 0.53,0.56 2.72,5.92 3.2,7.05 3.41,8.08 2.68,7.84 5.38,6.56 1.17,-0.55 0.7,-1 0.26,-1.93 -1.93,-4.1 -3.81,-9.2 -5.73,-13.2zm-41.95 -2.47l3.63 -6.13 0.36 1.21c0.15,0.5 0.34,1.02 0.51,1.52l7.03 21.99c-2.77,4.02 -1.32,-0.76 -2.24,-5.23 -0.71,-3.44 -2.65,-7.25 -5.07,-9.84 -1.39,-1.49 -2.92,-2.31 -4.22,-3.52zm6.54 -8.03l27.35 0.02c0.1,1.21 0.29,0.62 -0.52,1.69 -5.82,7.78 -11.64,16.33 -17.56,24.28 -0.55,-0.27 -0.36,-0.18 -1.06,-0.18l-8.21 -25.81z"/>
   <path class="fil0" d="M41.86 2.12c-1.62,-1.56 -2.2,-1.05 -4.59,-1.05 -1.88,0 -3.76,0 -5.64,0 -1.59,0 -4.03,-0.44 -5.1,0.54 -1.35,1.24 -0.8,2.73 0.31,3.85 1.02,1.01 2.22,1.88 3.6,2.04 1.95,0.23 7.01,-1.53 8.97,-2.28 1.8,-0.69 2.69,-0.71 2.45,-3.1z"/>
  </g>
 </g>
</svg>
