<?xml version="1.0" encoding="UTF-8"?>
<!DOCTYPE svg PUBLIC "-//W3C//DTD SVG 1.1//EN" "http://www.w3.org/Graphics/SVG/1.1/DTD/svg11.dtd">
<!-- Creator: CorelDRAW 2020 (64-Bit) -->
<svg xmlns="http://www.w3.org/2000/svg" xml:space="preserve" width="300px" height="300px" version="1.1" style="shape-rendering:geometricPrecision; text-rendering:geometricPrecision; image-rendering:optimizeQuality; fill-rule:evenodd; clip-rule:evenodd"
viewBox="0 0 300 300"
 xmlns:xlink="http://www.w3.org/1999/xlink"
 xmlns:xodm="http://www.corel.com/coreldraw/odm/2003">
 <defs>
  <style type="text/css">
   <![CDATA[
    .fil0 {fill:#0D6EFD}
    .fil1 {fill:white}
   ]]>
  </style>
 </defs>
 <g id="Capa_x0020_1">
  <metadata id="CorelCorpID_0Corel-Layer"/>
  <g id="_1883205291856">
   <circle class="fil0" cx="150" cy="150" r="148"/>
   <path class="fil1" d="M173.96 78.12l1.3 3.85c3.42,-0.69 4.69,-0.74 8.41,0.25 0.31,0.09 1.07,0.29 1.31,0.38l1.25 0.67c-5.38,0.87 -9.85,3.35 -14.07,6.33 -1.4,0.98 -2.91,1.71 -2.46,3.9 3.37,1.08 6.29,-6.1 19.19,-7.86 -0.89,1.47 -3.62,2.07 -3.52,4.3 0.11,2.33 5.63,14.1 6.53,17.42l-78.5 2.37c-1.1,-3.43 -1.35,-2.25 8.13,-4.34 3.57,-0.79 21.21,-4.3 23.15,-5.3 1.35,-0.7 2.62,-2.89 1.33,-4.94 -0.94,-1.49 -2.98,-1.57 -5.11,-1.93 -0.7,-0.3 0.65,0.78 -0.46,-0.61 -0.37,-0.47 0.08,-0.28 -0.73,-0.63 -2.8,-1.21 -29.34,-0.79 -33.94,-0.85 -2.47,-0.03 -6.41,-0.44 -7.02,2.71 -0.33,1.69 0.16,1.27 1.11,1.89 -1.42,3.1 -6.69,7.26 -4.02,11.97 2.99,5.27 7.7,2.04 12.72,0.97 0.9,3.89 1.43,1.61 -2.78,8.42 -1.16,1.87 -3.79,6.74 -5.09,8.09 -1.62,-0.54 -3.31,-1.62 -5.06,-2.36 -5.9,-2.46 -12.06,-3.95 -18.66,-4.29 -9.73,-0.49 -17.99,1.37 -25.9,4.86 -10.83,4.77 -18.66,12.1 -24.33,21.41 -1.66,2.73 -4.26,7.37 -5,10.71 -2.03,-1.44 -3.05,-0.3 -3.81,2.15 -0.54,1.72 -0.94,4.19 1.22,4.46 2,0.25 -1.02,-0.63 0.57,0.03 -0.25,1.5 -0.76,3.06 -0.54,4.57l3.46 0.3c0.08,-0.01 0.2,-0.04 0.26,-0.05 0.06,-0.02 0.18,-0.04 0.26,-0.07 1.08,-6.4 2.81,-12.18 5.9,-17.76 0.83,-1.48 0.64,-1.82 1.62,-1.7 0.85,0.74 0.59,0.76 -0.03,1.91 -0.43,0.77 -0.81,1.34 -1.23,2.19 -12.05,24.34 -1.74,54.25 22.19,66.14 12.81,6.37 29.39,7.28 42.71,0.79 2.98,-1.45 5.7,-2.86 8.15,-4.72 5.04,-3.83 9.55,-8.11 12.91,-13.52 1.45,-2.33 3.29,-6.92 4.62,-8.73 9.01,0.91 20.09,5.2 28.59,3.42 0.63,2.59 4.53,10.79 4.55,12.15l-3.82 -0.03 0 5.98 12.72 0 0.02 -5.95 -5.32 -0.02 -5.36 -13.37c0.1,-0.08 0.19,-0.26 0.22,-0.2 0.03,0.06 0.14,-0.15 0.18,-0.19l1.76 -1.33c2.26,-1.73 3.9,-4.61 4.62,-7.59 1.88,-7.72 -1.71,-9.11 -2.31,-13.17 3.12,-2.5 6.44,-7 9.22,-10.08 0.6,-0.66 0.93,-0.81 1.53,-1.5l10.52 -11.86c5.45,-5.88 10.31,-11.89 15.95,-17.59l5.1 -6.03c1.32,1.07 2.04,3.99 2.45,5.57 -5.83,3.98 -13.4,12.68 -17.18,20.98 -4.72,10.38 -6.19,19.94 -4.77,32.52 1.35,-0.05 3.06,-0.21 4.09,-0.72 -0.15,-3.66 -1.1,-8.76 -0.31,-12.43 0.48,-2.25 -0.36,-0.77 0.92,-1.25 0.44,0.82 0.31,8.46 0.45,9.86 0.32,3.02 0.95,5.98 1.72,8.76 9.22,33.25 51.24,46.61 78.33,24.72 3.36,-2.71 7.59,-7.04 10.09,-10.92 5.82,-9.05 9.63,-19.54 8.26,-32.92 -0.87,-8.5 -3.92,-16.02 -8.39,-22.74l-3.36 -4.44c-0.61,-0.65 -0.83,-0.77 -1.35,-1.35 -5.72,-6.31 -14.61,-12.47 -26.52,-14.84 -6.23,-1.24 -12.98,-1.24 -19.18,0.01 -8.16,1.64 -11.6,4.61 -15.14,5.52 -0.2,-1.38 0.05,-0.99 1.8,-1.91 7.6,-4 15.66,-5.72 24.43,-6.08l0.04 -4.15c-7.72,-0.14 -15.25,1.46 -22.08,4.46 -1.95,0.86 -4.39,2.33 -6.19,2.91l-7.33 -19.12 0.59 -0.44c1.22,-1.08 1.82,-4 1.12,-5.37 -2.08,0.29 -0.66,2.39 -2.04,4.11 -1.26,-1.02 -6.43,-15.71 -6.58,-16.42 0.93,-0.48 1.81,-0.76 2.17,-1.94 1.94,-6.33 -8.5,-8.35 -12.91,-9.07 -3.69,-0.61 -4.28,-0.5 -7.34,0.67zm34.39 58.92c0.44,2.77 6.34,15.97 7.79,18.44 4.81,8.13 7.23,8.73 13,13.33 2.8,-1.16 4.43,-2.29 7.66,-0.12 4.89,3.29 2.28,12.24 -4.88,11 -3.93,-0.67 -4.4,-4.2 -5.17,-5.39 -4.29,-0.62 -35.71,-4.79 -37.44,-4.54 -3.45,46.35 56.64,65.33 80.87,27.01 5.09,-8.06 7.98,-18.82 6.2,-30.08 -1.15,-7.2 -4.14,-14.18 -8.4,-19.67 -3.29,-4.24 -2.65,-2.85 -4.52,-4.98 -2.45,-2.79 -6.8,-5.75 -10.83,-7.8 -11.95,-6.1 -25.83,-6.09 -38.08,-0.55 -2.25,1.02 -4.3,2.56 -6.2,3.35zm-178.46 36.3l0 0.33c-0.08,37.67 44.57,56.72 71.8,33.54 3.86,-3.28 6.3,-5.8 9.21,-10.44 1.06,-1.68 2.68,-4.49 3.21,-6.36l-29.4 -5.36c-0.05,-0.13 -0.12,-0.33 -0.15,-0.28 -0.02,0.06 -0.12,-0.16 -0.15,-0.21 -3.54,-5.7 -1.45,-4.36 0.18,-7.67l-4.57 -0.6c-1.62,1.78 -0.87,1.93 -3.51,3.7 -1.43,0.96 -0.5,0.06 -1.24,1.49 -6.78,-0.77 -11.15,-3 -9.18,-11.31 -4.79,-3.06 -9.97,-6.22 -14.77,-9.48 -4.9,-3.34 -10.23,-6.34 -15.02,-9.61 -3.62,3.3 -6.4,15.76 -6.41,22.26zm85.8 -59.48c0.05,0.88 22.47,50.26 23.63,51.64 2.66,0.11 5.15,-0.18 7.72,0.44 2.88,0.7 3.86,1.83 5.92,2.65l5.32 -6.12c1.18,-1.1 1.6,-2 2.69,-3.07l30.18 -33.52c1.19,-1.12 1.54,-1.92 2.73,-3.03 1.13,-1.06 1.93,-1.98 2.81,-3.4l-3.06 -7.86 -77.94 2.27zm-78.55 35.59l7.4 4.81c2.58,1.61 4.74,3.1 7.4,4.79 2.39,1.52 13.74,9.06 15.2,9.61 2.48,-2.13 4.08,-2.95 8.47,-2.13 1.02,-2.22 3.35,-5.66 4.69,-7.83 2.1,-3.4 13.56,-21.72 14.35,-23.66 -2.94,-2.34 -11.09,-4.57 -15.64,-5.12 -11.45,-1.37 -23.27,1.92 -31.94,8.78 -3,2.37 -8.45,7.37 -9.93,10.75zm46.9 23.07c-0.15,-2.18 -1.19,-1.49 -0.14,-4.05l0.77 -1.28c0.43,-0.51 0.81,-1.03 1.28,-1.43l30.93 -0.13c-1.08,-7.51 -5.73,-16.3 -10.42,-21.46 -1.26,-1.4 -6.39,-6.14 -8.27,-6.87 -0.65,1.82 -14.61,24.22 -16.87,27.85 -0.99,1.6 -2.55,3.22 -2.01,4.79 1.03,2.97 1.46,2.2 4.73,2.58zm105.55 -4.72l37.34 4.76c-5.82,-4.73 -9.07,-6.63 -13.59,-13.6 -3.74,-5.77 -6.97,-16.45 -8.62,-18.82 -2.47,1.16 -8.07,8.48 -9.78,11.55 -2.24,4.02 -5.08,10.74 -5.35,16.11zm-85.15 -40.2c4.98,2.26 12.53,10.78 15.66,15.48 3.85,5.81 7.74,14.17 8.61,22.52l5.72 -0.07 -16.97 -37.09c-0.98,-2.15 -1.93,-4.23 -2.85,-6.3l-3.08 -6.2c-0.79,0.89 -6.7,10.55 -7.09,11.66zm-3.75 -31.53l-2.14 3.22c6.64,-1.7 9.92,3.21 7.27,9.22l3.85 -1.12c0.24,-1.43 -0.36,-1.45 0.34,-3.32 3.7,-1.14 2.88,0.44 3.89,2.28l27.25 -6.12c-0.16,-0.67 0.27,0.32 -0.26,-0.41 -0.48,-0.65 -1.05,-1.2 -1.15,-2.45 -0.13,-1.63 0.67,-2.27 1.47,-3.24 -2.39,-0.77 -4.71,1.11 -8.86,2.77 -17.6,7.02 -24.22,-0.8 -31.66,-0.83zm0.34 14.23c7.34,0 7.3,-10.91 0,-10.93 -7.31,-0.03 -7.4,10.93 0,10.93zm58.29 -27.41l2.22 5.83 13.3 -5.19 -2.21 -5.79 -13.31 5.15zm-13.17 106.38c-0.76,-2.97 -1.57,-0.83 -4.72,-1.78 -6.23,-1.88 -6.62,-9.93 -1.68,-13.05 5.42,-3.42 12.61,1.76 10.69,8.29 -0.72,2.42 -2.75,2.88 -1.29,4.77 8.03,-5.74 0.49,-20.05 -9.82,-14.83 -8,4.06 -6,18.43 6.82,16.6zm-23.44 -23.76l1.74 0.13c-1.41,-10.72 -7.3,-21.15 -14.39,-28.11 -1.5,-1.48 -5.8,-5.55 -8.15,-6.37 -0.76,2.81 -0.23,0.69 4.22,4.89 7.18,6.76 12.36,13.86 15.18,23.78 0.44,1.53 0.85,4.39 1.4,5.68zm-22.87 -64.34c-1.71,0.64 -3.27,2.61 -2.4,5 0.58,1.59 2.52,3.12 4.86,2.24 4.82,-1.82 1.93,-8.87 -2.46,-7.24zm42.19 -6.62c-1.34,0.75 -2.06,1.78 -1.5,3.67 0.39,1.33 1.95,2.04 3.66,1.41 3.43,-1.27 1.23,-6.97 -2.16,-5.08z"/>
  </g>
 </g>
</svg>
