<?xml version="1.0" encoding="UTF-8"?>
<!DOCTYPE svg PUBLIC "-//W3C//DTD SVG 1.1//EN" "http://www.w3.org/Graphics/SVG/1.1/DTD/svg11.dtd">
<!-- Creator: CorelDRAW 2020 (64-Bit) -->
<svg xmlns="http://www.w3.org/2000/svg" xml:space="preserve" width="300px" height="300px" version="1.1" style="shape-rendering:geometricPrecision; text-rendering:geometricPrecision; image-rendering:optimizeQuality; fill-rule:evenodd; clip-rule:evenodd"
viewBox="0 0 300 300"
 xmlns:xlink="http://www.w3.org/1999/xlink"
 xmlns:xodm="http://www.corel.com/coreldraw/odm/2003">
 <defs>
  <style type="text/css">
   <![CDATA[
    .fil0 {fill:#0D6EFD}
    .fil1 {fill:white}
   ]]>
  </style>
 </defs>
 <g id="Capa_x0020_1">
  <metadata id="CorelCorpID_0Corel-Layer"/>
  <g id="_1847331256720">
   <circle class="fil0" cx="150" cy="150" r="148"/>
   <path class="fil1" d="M207.96 104.9l-1.86 0.51c-0.26,1.94 0.28,1.68 0.53,3.09 -3.79,0.53 -4.23,0.11 -7.27,1.65 -0.69,0.35 -1.48,0.53 -2.11,0.88 -0.22,2.03 0.49,3.55 1.14,5.01l1.87 0.27c0.05,0.01 0.15,0.03 0.22,0.07 0.06,1.06 -0.13,1.65 0.06,2.63 0.19,0.98 0.48,0.97 0.54,2.2 -0.79,0.59 -82.94,20.68 -83.39,20.55 -0.82,-0.6 -0.25,-0.25 -0.8,-0.75 -1.46,-1.31 -2.96,-5.7 -3.41,-7.5 2.89,-2.86 3.49,-4.53 6.97,-7.12 1.39,-1.05 2.68,-1.74 4.35,-2.6 1.6,-0.83 3.69,-1.39 4.91,-2.29 0.66,-3.17 -2.66,-5.03 -5.99,-4.62 -4.16,0.5 -18.76,7.05 -23.56,8.85 -5.09,1.92 -14.42,2.69 -7.52,9.05 4.28,3.95 11.75,1.96 17.15,0.69 3.75,9.35 2.8,6.63 0.95,7.99l0.11 1.74c0.99,0.17 1.42,-0.03 2.27,-0.23 0.11,1.45 0.55,0.85 -1.87,3.33 -0.88,0.89 -1.75,1.6 -2.69,2.45 -1.84,1.67 -3.72,3.21 -5.26,5.29 -0.97,-0.36 -3.94,-3.02 -5.63,-4.23 -1.7,-1.22 -4.13,-2.67 -6.27,-3.69 -25.36,-12.04 -55.09,0.95 -63.82,26.48 -11.57,33.86 17.55,67.24 52.03,60.8 5.34,-1 10.3,-2.81 14.43,-5.22 6.4,-3.72 6.59,-4.61 11.09,-8.86 4.55,-4.29 9,-12.44 10.77,-19.13 0.5,-1.88 1.14,-7.01 1.68,-8.27 2.54,-0.1 12.48,-0.15 14.39,-0.72 1.13,-0.34 2.71,-1.5 3.37,-1.36 0.38,0.09 10.71,7.55 11.91,8.52l-0.33 0.24c-0.92,0.8 -1.84,2.78 -1.72,3.64 0.09,0.66 0,0.33 0.27,0.7 1.29,0.62 12.85,0.39 15.1,0.18 0.69,-0.88 1.88,-3.08 1.31,-4.23 -2.21,-1.2 -5.72,0.56 -7.91,-1.16l-15.29 -12.66c0.84,-3.67 0.61,-3.58 0.11,-7.28 1.18,-0.53 2.93,-1.85 4.04,-2.61 1.49,-1.01 2.76,-1.78 4.22,-2.75l41.2 -27.67c1.49,-1 15.21,-10.68 16.75,-10.73 0.58,0.83 0.51,1.28 0.7,2.35l1.11 0.24c0.3,3.88 1.66,6.19 2.16,9.49 -6.94,2.36 -14.08,9.59 -18.22,15.35 -1.56,2.16 -2.97,4.69 -4.16,7.32 -17.09,37.6 20.38,77.48 59.34,62.06 10.79,-4.27 18.72,-12.09 23.7,-21.32 11.84,-21.95 3.31,-49.8 -17.88,-61.84 -4.77,-2.71 -10.58,-4.89 -16.95,-5.71 -8.22,-1.04 -12.71,0.08 -20.14,1.72 -0.57,-2.69 -1.69,-5.38 -2.21,-7.78 -0.43,-1.95 0.65,-0.76 -0.63,-3.57 -1.07,-2.34 -3.97,-13.63 -4.07,-16.16 -0.11,-2.6 -0.74,-1.55 -1.44,-3.62 3.41,-2.84 8.67,-3.39 8.31,-6.3 -0.14,-1.13 -0.49,-1.06 -0.56,-1.57 -0.03,-0.17 0.05,-1.46 -0.09,-2.3l-2.8 0.21c-1.63,-8.53 -3.65,-16.82 -5.39,-25.25 -0.54,-2.6 -1.12,-6.69 -2.39,-8.79 -1.23,-2.05 -0.61,-0.74 -0.87,-3.08 -0.28,-2.52 -1.92,-2.58 -4.58,-2.97 -1.75,-0.26 -5.42,-1.22 -6.9,-0.46 -1.63,0.84 -2.28,3.43 -0.88,4.93 1.11,1.2 4.09,1.24 6.05,1.52 3.14,0.46 3.82,-0.21 4.79,2.75 0.62,1.92 1.02,4.38 1.47,6.38 1.13,5.06 4.9,21.25 5.49,25.27zm-88.37 42.35c-0.3,1.84 7.58,22.51 8.77,25.83 4.47,0.18 4.13,0.93 7.18,2.15 1.46,-1.42 60.7,-40.25 67.94,-45.44 0.29,-3.87 -1.28,-2.54 -9.02,-0.67l-64.31 15.41c-2.68,0.66 -8.65,1.8 -10.56,2.72zm103.01 45.8c0.08,-0.21 0.13,-0.45 0.15,-0.73l-0.29 -0.01c-0.03,-0.14 -0.06,-0.28 -0.1,-0.43l0.15 0.02c-0.56,-1.17 -0.66,-1.65 -1.02,-1.73 -0.12,-0.15 -0.25,-0.3 -0.39,-0.43 0.09,-0.13 0.18,-0.27 0.3,-0.43l-0.38 -0.25c0.24,-2.42 -0.47,-1.28 -0.74,-3.27 -0.09,-0.63 -0.02,-0.49 -0.27,-1.37l-0.61 -0.17c0.01,-0.13 0,-0.26 -0.01,-0.39l0.05 0 -0.07 -0.16c-0.08,-0.55 -0.29,-1.1 -0.52,-1.6 0.13,0.07 0.27,0.14 0.44,0.21 -1.37,-5.87 -3.52,-11.02 -4.73,-15.25 -0.6,-2.09 -1.47,-7.07 -2.62,-8.91 -0.61,0.22 -1.36,0.66 -1.96,1 -0.33,0.19 -0.58,0.31 -0.75,0.4 -0.74,0.01 -1.49,0.28 -2.16,0.92 -0.94,0.9 -4.47,3.87 -4.66,4.97 -0.55,0.6 -1.15,1.18 -1.7,1.92l-2.51 3.55c-1,1.59 -3.36,6.61 -3.58,8l0.05 0.03c-0.07,0.14 -0.12,0.28 -0.17,0.43l-0.06 -0.01c-0.79,1.71 -1.11,3.77 -1.27,5.64l0.03 0c-0.02,0.12 -0.05,0.25 -0.07,0.38l-0.06 0.01c-0.29,2.55 -0.42,8.94 0.46,11.76 0.07,0.36 0.18,0.7 0.33,1.02l-0.06 0.01 1.62 5.43 0.12 -0.01 3.34 6.02c0.74,1.64 1.9,2.88 2.91,4.07 0.34,0.5 0.66,1.02 1.16,1.36 1.07,1.31 2.57,2.07 3.82,3.46l0.25 -0.07c0.16,0.19 0.34,0.35 0.55,0.49l-0.07 0.19c1.72,0.58 3.02,2.08 5.12,2.78l0.04 -0.11 0.19 0.1 -0.1 0.28c1,0.37 1.98,0.84 3.02,1.25 0.71,0.29 1.11,0.49 1.4,0.56 0.56,0.47 1.36,0.78 2.41,0.79 0.59,0.15 1.41,0.28 2.55,0.47 0.21,0.04 0.56,0.1 0.77,0.09l0.36 -0.07c0.37,0.09 0.77,0.1 1.21,0.02 0.04,0.11 0.1,0.22 0.16,0.32l5.77 0.26 0 -0.11c0.08,-0.02 0.17,-0.04 0.25,-0.07l0 0.06 5.97 -0.72c0.65,-0.02 1.3,-0.22 1.84,-0.57l3.06 -0.98c0.84,0.05 1.66,-0.38 2.26,-0.95 0.68,-0.26 1.35,-0.65 2.01,-1.03 1.61,0.21 3,-0.58 3.55,-2.12 1.62,-0.86 2.93,-2.37 3.84,-3.35 1.24,-1.34 1.85,-1.44 3.52,-3.54 2.1,-2.63 -0.67,0.24 1.76,-2.43l2 -3.35 -0.11 -0.08c0.07,-0.12 0.14,-0.25 0.19,-0.38l0.01 0.01 1.44 -2.67c0.41,-1.03 0.74,-1.92 1.02,-3.04l1.29 -5.54c0.21,-0.45 0.32,-0.95 0.22,-1.53l0.21 -5.69 -0.16 -0.04c-0.01,-0.18 -0.02,-0.34 -0.05,-0.52l0.06 -0.01 -0.6 -4.87 -0.01 0c0,-0.67 -0.2,-1.34 -0.6,-1.89l-1.2 -4.15 -0.19 0.05c-0.04,-0.12 -0.09,-0.23 -0.15,-0.33l0.01 0c-0.38,-1.25 -0.84,-2.13 -1.46,-3.25 -0.71,-1.29 -1.02,-1.94 -1.22,-2.22 -0.21,-0.74 -0.63,-1.29 -1.15,-1.65 -0.79,-1.19 -2.34,-3.08 -3.3,-3.6l-0.1 0.12 -0.12 -0.14 0.18 -0.21c-0.47,-0.77 -2.11,-2.34 -3.35,-3.18 -0.51,-0.79 -1.17,-1.06 -1.95,-1.47 -1.37,-0.82 -2.65,-1.71 -4.08,-2.46 -1.69,-0.89 -3.26,-1.71 -5.17,-2.22 -0.5,-0.22 -1.17,-0.54 -1.72,-0.56 -1.82,-0.41 -3.67,-1.02 -5.58,-0.92l-0.01 0.26 -0.24 -0.01 0.01 -0.45c-3.86,-0.22 -5.17,-0.42 -5.62,0.1l-0.33 -0.02 0.01 -0.18 -7.81 1.31c1.96,9.14 5.13,18.13 12.07,39.01 -3.79,1.19 -3.36,0.23 -6.66,0.82 -0.46,-0.59 -1.01,-1.37 -1.64,-2.05zm-185.96 6.06l1.33 4.5 0.04 -0.01c0.07,0.51 0.26,1.02 0.6,1.41 0.15,0.29 0.37,0.68 0.67,1.25 2.22,4.27 6.11,9.18 10.04,12.02 1.63,1.18 3.98,3.13 5.87,3.59l4.93 2.21c0.16,0.1 0.33,0.17 0.5,0.22l0 0c0.14,0.03 0.25,0.07 0.39,0.09l5.39 1.18 0.05 -0.24c0.13,0.04 0.25,0.08 0.37,0.1l0.01 0.1 6.17 0.35 -0.01 -0.07c0.29,0 0.58,-0.04 0.86,-0.12l5.89 -0.76 -0.02 -0.05c0.19,-0.05 0.36,-0.13 0.52,-0.22l0.02 0.02 5.17 -1.63c-0.01,-0.04 -0.03,-0.13 -0.06,-0.25 0.12,-0.03 0.23,-0.07 0.35,-0.12 1.74,-0.39 3.32,-1.71 4.87,-2.32l0.23 -0.44c3.61,-1.56 6.71,-5.54 9.28,-8.43 -0.02,-0.08 -0.03,-0.16 -0.05,-0.22 0.17,-0.16 0.33,-0.35 0.47,-0.57l0.19 0.07c0.64,-1.48 1.6,-2.53 2.3,-4.07l-0.06 -0.05c0.08,-0.19 0.14,-0.37 0.18,-0.54l0.31 0.04c1.03,-2.78 1.94,-3.97 1.98,-4.85 0.32,-0.51 0.45,-1.02 0.45,-1.5 0.27,-0.32 0.28,-0.96 0.5,-2.01 0.25,-1.2 0.45,-2.3 0.58,-3.56l-13.43 0.42c-0.07,0.08 -0.04,0.19 -0.1,0.29 -0.5,-0.01 -0.98,-0.05 -1.32,0 -3.93,-0.58 -4.55,0.16 -6.95,0.12l-5.38 0.05c-0.24,-0.05 -0.51,-0.07 -0.79,-0.08 -0.47,-0.14 -1,-0.14 -1.52,-0.05l-5.87 -0.17c-0.26,-0.02 -0.76,-0.06 -1.39,-0.09 -1,-0.72 -2.71,-0.37 -3.5,-1.56 -2.07,-3.1 -1.47,-2.4 -0.63,-5.13 0.03,-0.09 0.05,-0.18 0.06,-0.27 0.39,-0.38 0.69,-1.04 0.64,-1.58l3.29 -1.25c1.49,-0.75 3.71,-0.31 4.72,-2.08l0.03 0.2c1.36,-1.35 1.55,-1.47 1.54,-1.74 0.11,-0.1 0.23,-0.22 0.35,-0.34l-0.03 0.23c1.74,-1.12 7.1,-6.75 9.24,-8.7 0.86,-0.78 1.52,-1.35 2.37,-2.16 0.84,-0.79 1.32,-1.56 2.17,-2.35 1.32,-1.22 3.63,-3.55 4.97,-4.39 -0.89,-1.69 -4.57,-3.97 -6.17,-4.88 -0.31,-0.18 -0.41,-0.24 -0.79,-0.43 -2.77,-1.4 -3.18,-1.73 -6.63,-2.8l-0.06 0.25c-0.11,-0.08 -0.23,-0.16 -0.36,-0.22l0.04 -0.17c-1.87,-0.47 -3.95,-1.06 -6.04,-1.16l-0.26 -0.11c-0.94,-0.06 -1.81,-0.13 -2.77,-0.16 -1.13,-0.04 -2,-0.13 -2.77,0.24 -0.03,0.02 -0.05,0.07 -0.08,0.13 -0.12,0.02 -0.23,0.04 -0.35,0.08l0.02 -0.41 -5.79 0.7 0.02 0.23c-0.17,0.01 -0.32,0.02 -0.47,0.05l-0.02 -0.07c-1.71,0.45 -3.42,0.96 -5.07,1.57 -0.63,0.05 -1.24,0.35 -1.79,0.76l-0.1 -0.02c-1.1,0.83 -3.05,1.54 -3.94,2.33 -1.74,1.56 -3.78,2.33 -4.55,3.31 -0.6,0.21 -1.14,0.66 -1.49,1.38 -0.26,0.23 -0.61,0.6 -1.07,1.16 -1.62,1.98 -4.34,5.16 -5.36,7.65 -0.18,0.17 -0.34,0.37 -0.47,0.62l-0.02 -0.01c-0.06,0.17 -0.12,0.32 -0.18,0.49 -0.54,1.35 -1.62,3.14 -1.66,4.42 -0.2,0.34 -0.33,0.74 -0.36,1.14 -0.67,1.35 -0.96,3.22 -1.12,4.84 -0.07,0.23 -0.1,0.47 -0.11,0.71l-0.02 -0.01 -0.3 5.28c-0.24,0.71 -0.22,1.52 0.12,2.23 -0.01,1.28 0.13,2.82 0.48,4.02 -0.11,0.8 0.09,1.74 0.71,2.37zm42.58 -16.5c1.43,-0.19 2.04,-0.25 2.49,-0.6 0.03,0 0.46,-0.03 0.52,-0.04l-0.02 0.04c2.45,-0.32 4.8,-1.04 6.92,-2.06 1.49,-0.71 -0.03,0.31 3.99,-0.81 3.57,-1 7.94,-1.95 11.25,-3.16 -0.57,-2.1 -4.9,-9.34 -6.92,-10.39 -2.14,1.21 -5.4,5.87 -6.09,6.07l-0.39 -0.03c-0.89,0.08 -1.68,1.17 -2.41,2.01 -1.42,1.66 -3.21,2.72 -4.75,4.32l-4.59 4.65zm25.91 -24.43c0.73,0.97 1.64,1.84 2.35,2.81 1.77,-0.01 3.88,-0.31 5.55,0.23 0.43,1.22 0.06,1.55 -0.42,2.64l-1.63 2.08c3.14,1.45 10.41,8.2 12.42,8.1l-8.7 -23.9c-2.06,0.39 -7.51,6.37 -9.57,8.04zm-23.3 27.46c0.04,-0.05 0.09,-0.11 0.12,-0.17 -1.63,0.08 -2.28,0.22 -3.62,0.57 -0.67,0.18 0.04,0.08 -0.45,0.09l-2.22 0c0.57,2.02 0.94,0.43 1.1,1.78 0.01,0.02 -0.06,0.86 -0.02,1.2 0.89,0.08 0.48,0.25 1,-0.19 0.68,-0.57 0.09,-0.01 0.1,-0.43l0.96 0.03c2.18,0.67 10.78,-1.15 13.16,-1.5 4.92,-0.71 9.82,-1.57 14.76,-2.19l-0.18 -2.42c-4.35,0.2 -9.01,1.06 -13.33,1.58l-9.92 1.28c-0.3,0.09 -0.56,0.23 -0.82,0.4 -0.17,0 -0.41,-0.03 -0.64,-0.03zm5.1 6.4l0.39 0.23 -1.14 0.11c-0.17,0.03 -2.91,0.18 -1.91,0.93l5.67 0.05c1.88,0.46 3.62,0.18 6.6,0.07 3.5,-0.13 7.07,-0.13 10.54,-0.35l0.2 -4.08 -20.35 3.04zm30.58 -4.59l0.01 5.25 6.59 -0.12c-0.98,-1.16 -3.05,-1.84 -4.64,-5.43l-1.96 0.3zm5.25 -0.81c0.41,1.12 0.31,0.98 0.97,1.65 1.51,1.53 2.79,2.1 5.14,2.32l-2.07 -4.48 -4.04 0.51z"/>
  </g>
 </g>
</svg>
