<?xml version="1.0" encoding="UTF-8"?>
<!DOCTYPE svg PUBLIC "-//W3C//DTD SVG 1.1//EN" "http://www.w3.org/Graphics/SVG/1.1/DTD/svg11.dtd">
<!-- Creator: CorelDRAW 2020 (64-Bit) -->
<svg xmlns="http://www.w3.org/2000/svg" xml:space="preserve" width="300px" height="300px" version="1.1" style="shape-rendering:geometricPrecision; text-rendering:geometricPrecision; image-rendering:optimizeQuality; fill-rule:evenodd; clip-rule:evenodd"
viewBox="0 0 300 300"
 xmlns:xlink="http://www.w3.org/1999/xlink"
 xmlns:xodm="http://www.corel.com/coreldraw/odm/2003">
 <defs>
  <style type="text/css">
   <![CDATA[
    .fil0 {fill:#0D6EFD}
    .fil1 {fill:white}
   ]]>
  </style>
 </defs>
 <g id="Capa_x0020_1">
  <metadata id="CorelCorpID_0Corel-Layer"/>
  <g id="_1847283115680">
   <circle class="fil0" cx="150" cy="150" r="148"/>
   <path class="fil1" d="M200.88 84.7c-1.88,1.49 -9.04,4.35 -11.75,5.67 -4.75,2.33 -0.29,5.92 1.29,12.3 -11.82,1.62 -48.06,17.05 -60.14,23.59 -1.38,0.74 -2.54,1.33 -3.81,2.05 -1.36,0.76 -2.67,1.75 -3.99,2.2 -1.71,-2.72 -2.19,-10.91 -7.27,-7.96 -3.57,2.07 0.29,8.14 1.17,11.76l-8.29 5.94c-2.94,2.15 -5.36,4.24 -8.12,6.35l-9.59 8.33c-0.73,0.74 -1.05,1.28 -1.79,1.99l-13.91 14.69c-1.6,1.58 -2.35,-0.18 -5.2,2.03 -3.16,2.45 -2.95,7.8 0.18,10.05 2.86,2.07 6.16,1.68 8.68,-1.19 0.04,-0.05 0.5,-0.55 0.5,-0.56 0.32,-0.33 0.26,-0.28 0.57,-0.55l32.15 2.22c-0.79,8.04 -5.25,15.79 -10.84,21.27 -3.08,3.01 -4.25,4.37 -8.96,6.88 -3.79,2.02 -7.24,3.38 -11.96,4.22 -27.62,4.95 -51.39,-20.53 -44.7,-47.76 1,-4.07 2.78,-8.13 4.69,-11.18 6.23,-9.91 16.97,-17.41 29.85,-18.43 4.95,-0.39 9.56,0.08 14.12,1.34 4.96,1.38 7.38,3.33 11.16,5.08 1.21,-0.8 2.29,-1.83 3.43,-2.8 0.69,-0.59 1,-0.82 1.71,-1.39 0.8,-0.66 1.13,-0.76 1.93,-1.53 -6.06,-6.14 -20.05,-10.05 -29.81,-9.86 -21.46,0.42 -39.52,14.78 -45.34,34.64 -3.2,10.93 -2.19,24.37 2.66,33.9 4.81,9.45 10.69,15.95 19.04,20.94 26.6,15.88 60.82,2.25 70.23,-26.35 0.83,-2.53 1.17,-5.83 1.98,-8.23l6.46 0.35c1.86,5.06 3.78,4.92 6.23,6.8l-1.91 10.3 -4.96 0.14 -0.22 4.53 13.62 -0.02 -0.08 -4.55 -4.42 0.02 1.89 -9.99c4.77,-0.77 8.37,-3.49 9.14,-8.11 0.81,-4.77 -1.43,-5.21 -0.51,-7.02 0.33,-0.65 1.41,-1.86 1.92,-2.59 0.68,-0.99 1.11,-1.64 1.86,-2.62l44.08 -60.75c0.4,1.63 1.41,3.8 2.08,5.48 0.97,2.47 1.15,4.15 4.4,3.57 3.76,-1.32 0.06,-7.78 -1.78,-12.38 -1.41,-3.53 -4.25,-9.59 -5,-12.82 1.23,-1.01 7.13,-3.44 9.01,-4.31 7.58,-3.52 2.07,-4.61 4.48,-9.31 2.18,-4.26 -1.74,-8.09 -5.56,-6.25 -1.5,0.73 -2.65,2.5 -2.27,4.7 0.53,3.05 1.8,0.6 1.67,5.18zm12.29 56.5c2.29,-1.95 11.78,-2.86 15.42,-2.69 9.84,0.46 16.03,3.54 23.11,8.85 2,1.5 5.24,5.02 6.89,7.24 8.93,12.03 9.88,29.6 2.01,42.74 -2.27,3.79 -5.19,7.41 -8.55,10.05 -30.7,24.13 -69.4,-2.89 -63.53,-36.69 0.87,-5.02 2.66,-9.48 4.99,-13.24 1.77,-2.84 3.68,-5.43 6.05,-7.72 0.97,-0.94 1.42,-1.14 2.53,-2.34 -0.13,-1.51 -1.66,-4.77 -2.37,-6.61l-1.11 -2.07c-8.04,4.61 -16.14,17.78 -18.42,27.5 -3.35,14.25 -0.14,26.77 6.2,37.15 14.46,23.68 48.95,29.67 70.61,11.73l5.89 -5.47c1.54,-1.8 3.4,-4.28 4.84,-6.55 1.53,-2.4 2.82,-4.93 3.95,-7.76 5.89,-14.77 3.81,-32.83 -5.15,-45.21l-5.23 -6.14c-0.71,-0.73 -1.88,-2.07 -2.72,-2.79 -3.04,-2.58 -6.85,-5.08 -10.66,-6.93 -5.35,-2.61 -11.57,-4.42 -18.3,-4.73 -8.75,-0.41 -12.46,1.06 -19.98,3.03 -1.51,-4.31 -4.59,-15.34 -9.84,-10.48 -2.55,2.36 -0.67,5.33 0.46,8.18l18.77 47.36c1.12,2.85 2.53,3.3 6.18,4.86 3.32,1.42 6.49,-0.52 6.03,-3.97 -0.51,-3.79 -4.27,-2.47 -5.54,-5.47 -2.21,-5.26 -4.16,-10.52 -6.25,-15.81 -1.93,-4.9 -4.8,-11.16 -6.28,-16.02zm-89.18 -6.12l12.93 37.04c0.99,-1.24 2.02,-8.48 2.29,-10.61l-4.77 0.03 -0.03 -4.56 13.53 0.02 0 4.5 -4.76 0.05 -1.4 9.39 1.09 -1.43c6.15,-9.03 14.92,-20.34 21.36,-29.61 1.87,-2.69 3.88,-5.22 5.65,-7.78 1.58,-2.29 16.56,-22.58 16.96,-23.81 -15.79,3.82 -49.68,18.08 -62.85,26.77zm-45.58 39.19l1.32 2.63 32.32 2.2c0.23,-5.8 -0.85,-11.53 -2.87,-16.35 -1.58,-3.77 -5.14,-10.15 -7.83,-11.61l-21.59 21.4c-0.59,0.69 -0.7,1.04 -1.35,1.73zm30.6 -28.94c0.04,0.08 0.11,0.11 0.13,0.23l2.24 2.95c0.86,1.13 1.54,2.13 2.4,3.46 5.96,9.33 6.91,16.81 7.35,27.76l5.82 0.39c2.19,-4.81 0.06,-1.4 3.47,-5.85 -1.61,-5.8 -4.19,-11.82 -6.15,-17.66l-6.31 -17.67c-1.61,0.98 -7.83,5.2 -8.95,6.39zm-20.92 -49.26c1.35,0.77 6.3,1.91 8.19,2.45 3.66,1.04 5.25,1.48 9.43,1.29 0.83,3.33 4.42,13.03 5.96,17.4 0.74,2.11 1.02,4.85 3.86,4.08 4.18,-1.14 -4.32,-16.15 -5.57,-23.15 3.76,-3.12 11.59,-3.25 13.42,-4.51 -1.58,-2.65 -4.2,-2.3 -7.78,-2.09 -6.46,0.39 -14.66,0.47 -21.12,0.18 -3.62,-0.16 -6.52,0.62 -6.39,4.35z"/>
  </g>
 </g>
</svg>
