<?xml version="1.0" encoding="UTF-8"?>
<!DOCTYPE svg PUBLIC "-//W3C//DTD SVG 1.1//EN" "http://www.w3.org/Graphics/SVG/1.1/DTD/svg11.dtd">
<!-- Creator: CorelDRAW 2020 (64-Bit) -->
<svg xmlns="http://www.w3.org/2000/svg" xml:space="preserve" width="300px" height="300px" version="1.1" style="shape-rendering:geometricPrecision; text-rendering:geometricPrecision; image-rendering:optimizeQuality; fill-rule:evenodd; clip-rule:evenodd"
viewBox="0 0 300 300"
 xmlns:xlink="http://www.w3.org/1999/xlink"
 xmlns:xodm="http://www.corel.com/coreldraw/odm/2003">
 <defs>
  <style type="text/css">
   <![CDATA[
    .fil0 {fill:#0D6EFD}
    .fil1 {fill:white}
   ]]>
  </style>
 </defs>
 <g id="Capa_x0020_1">
  <metadata id="CorelCorpID_0Corel-Layer"/>
  <g id="_1847292049248">
   <circle class="fil0" cx="150" cy="150" r="148"/>
   <path class="fil1" d="M78.16 180.82c-0.08,0.08 -0.2,0.17 -0.49,0.37l-7.7 4.44 -0.03 -0.07c-1.66,1.52 -5.26,3.6 -6.8,4.6 -0.11,0.07 -0.22,0.14 -0.33,0.2l-0.87 1.35c-0.33,1.08 -0.47,2.67 -0.26,3.93 0.53,3.08 2.21,3.13 2.56,4.44 0.31,0.11 0.61,0.26 0.88,0.44 0.9,0.3 1.48,0.66 2.28,0.78 1.33,0.21 2.75,0 3.7,-0.33l1.6 -0.85 0.03 0.09c0.12,-0.04 0.25,-0.07 0.38,-0.1 0.03,-0.09 0.06,-0.18 0.1,-0.27 0.1,-0.04 0.25,-0.2 0.31,-0.1l1.95 -0.19c2.58,0.03 4.34,-0.39 6.73,-0.19 1.21,-0.54 2.77,-0.53 4.14,-0.4l14.04 -0.72c-0.14,1.57 -0.35,3.42 -1.05,4.66l-0.01 0 0.03 0.11 0.07 0.01 -0.03 0.15c0.25,1.33 -0.24,2.79 -1.23,3.71 -0.79,2.28 -2.68,5.49 -3.63,6.64 -0.42,0.5 -0.21,0.24 -0.74,0.75l-0.56 0.59c-1.17,1.7 -2.41,3.18 -4.14,4.48 -6.44,4.8 -7.97,5.13 -17.17,7.4 -0.56,-0.19 -6.05,-0.05 -7.56,-0.24 -2.52,-0.32 -4.52,-1.12 -6.62,-1.58 -0.87,-0.02 -1.74,-0.3 -2.43,-0.88 -0.57,-0.16 -1.13,-0.47 -1.62,-0.96 -3.17,-1.81 -5.88,-3.62 -7.91,-5.92l0.03 -0.08c-1.18,-0.59 -2.19,-1.53 -2.66,-2.72 -0.4,-0.43 -0.94,-1.41 -2.1,-3.29 -0.67,-1.1 -1.19,-2.05 -1.67,-3.13 -0.64,-0.63 -1.06,-1.53 -1.1,-2.7 -0.26,-0.15 -0.27,-0.78 -0.64,-2.35 -0.82,-3.39 -2.1,-11.53 -0.26,-14.17 -0.07,-1.82 0.55,-3.58 1.18,-5.23 0.22,-0.57 0.46,-1.25 0.71,-1.84 0.09,-1.15 0.59,-2.04 1.3,-2.64 0.02,-0.5 1.13,-0.88 1.67,-2.14 1.22,-2.89 5.79,-6.89 8.53,-8.74l0.06 0.03c0.34,-0.33 0.75,-0.6 1.26,-0.8 5.01,-3.46 14.12,-5.65 21.27,-4.3l-0.01 0.3c0.79,-0.21 1.65,-0.18 2.43,0.09 0.46,0.08 0.44,0.17 0.77,0.37l0 0c2.51,0.46 4.36,1.32 6.4,2.34 2.21,1.12 3.47,2.24 5.33,3.01l-0.23 0.46 0.1 0.15 0.04 -0.06 2.12 1.31 10.02 -5.88c-2.99,-3.21 -6.64,-6.28 -10.6,-8.42 -14.52,-7.87 -31.96,-6.81 -45.04,1.63 -14.14,9.13 -25.92,30.15 -16.03,53.8 10.92,26.13 46.96,35.14 68.62,15.36 0.92,-0.84 1.48,-1.7 2.38,-2.51 4.36,-3.91 7.1,-8.54 9.51,-14.58 4.25,-10.65 -0.02,-13.12 6.28,-13.19 2.87,10.78 11.8,14.53 21.89,12.78l2.55 5.87 -3.8 0.09 0.01 4.95 12.19 -0.02 0.05 -4.95 -4.6 0.01 -3.19 -7.44c7.43,-2.56 10.76,-12.87 8.89,-20.02 -0.91,-3.46 -2.08,-4.42 -3.4,-6.74 0.88,-1.94 16.48,-21.66 18.15,-23.59 0.97,-1.14 0.08,-0.74 2.23,-1.17l27.24 -5.52c7.1,-1.48 14.88,-3.29 22.08,-4.44l7.36 33.93c1.12,2.9 3.73,15.12 4.32,17.64 0.04,0.16 0.14,0.34 0.21,0.49 0.68,0.01 1.23,0.31 2.31,0.58 0.31,1.35 0.93,3.24 -0.38,4.67 0.93,1.25 -0.43,0.55 0.6,0.12 0.05,-0.03 0.42,-0.45 0.53,-0.5 0,1.22 0.32,4.84 0.53,6.35 0.7,4.9 0.72,7.1 0.01,12.36 -0.33,2.46 0.33,4.91 -2.89,4.07 -2.67,-0.62 -5.64,-0.79 -8,-2.12l-0.06 -0.1c-2.43,-0.5 -6.39,-2.87 -8.33,-4.46 -0.63,-0.51 -0.92,-0.79 -1.21,-1.04 -0.42,-0.18 -0.79,-0.42 -1.09,-0.7l-0.08 -0.04 0 -0.04c-0.24,-0.23 -0.44,-0.49 -0.6,-0.78l-0.19 0.07c-0.32,-0.48 -0.43,-0.7 -0.74,-1.23 -0.64,-1.07 -1.1,-0.78 -2.9,-3.34 -1.13,-1.63 -2.23,-3.61 -3.09,-5.61l0.01 -0.01c-0.59,-0.88 -0.7,-1.79 -0.95,-2.79l-0.22 -0.11c-0.75,-4.06 -1.58,-6 -1.39,-10.73l0.15 -0.01c-0.22,-0.9 -0.14,-1.84 0.33,-2.71 -0.05,-0.24 -0.11,-0.74 -0.11,-0.96l0.89 -4.34c0.51,-1.75 1.32,-3.25 1.69,-4.87l0.25 -0.04c0.09,-0.2 0.19,-0.38 0.31,-0.56 3.65,-8.06 7.48,-9 8.86,-10.53 0.04,-0.04 0.1,-0.14 0.14,-0.18 0.56,-0.45 1.13,-0.93 1.71,-1.34l3.03 -1.83 -2.45 -11.45c-4.27,1.09 -10.52,6.15 -12.84,8.18 -11.53,10.09 -17.03,30.52 -10.93,46.41 3.85,10.03 9.45,17.2 18.74,22.68 32.14,18.96 71.54,-8.74 65.02,-45.43 -2.84,-15.95 -14.02,-28.03 -28.87,-33.28 -6.61,-2.34 -11.3,-2.1 -18.49,-2.1l-1.22 -4.57 9.22 -1.79 -1.34 -7.29c1.44,-0.17 1.83,-0.16 2.97,-0.74l-1.98 -10.87 -7.41 1.34c0.39,2.66 0.96,7.11 1.76,9.72 0.72,2.35 0.2,0.58 0.95,1.39 0.87,0.95 1.01,2.38 1.08,3.69l-6.03 1.37c-0.36,-2.79 -1.62,-9.42 -2.6,-12.18 -0.74,-2.08 -1.33,-1.15 -1.98,-3.11 0.08,-0.13 0.16,-0.25 0.24,-0.36 -0.11,-0.14 -0.22,-0.3 -0.31,-0.46l-0.2 0.1c-0.03,-0.26 -0.07,-0.49 -0.11,-0.69 -0.34,-0.79 -0.57,-1.76 -0.62,-2.96l-0.03 0 -6.14 -26.87c0.9,-0.89 2.16,-0.43 2.14,-2.28 -0.01,-1.83 -1.42,-1.48 -3.04,-1.4l-5.11 -22.68c2.37,-0.67 4.1,-0.79 6.32,0.65 0.4,-0.05 0.84,-0.06 1.31,0 2.37,-0.99 4.17,-1.69 4.26,-4.79 0.13,-4.67 -4.99,-6.09 -8.1,-3.92 -2.98,2.09 -10.01,-0.13 -12.18,2.51 -0.65,0.8 -1,2.12 -0.52,3.35 0.64,1.65 1.67,1.1 2.3,2.64l5.25 23.28c-0.06,0.06 -0.19,0.03 -0.22,0.14l-0.91 0.59c-0.94,0.83 -1.07,2.27 0.19,2.84 0.53,0.24 0.48,0.11 0.93,0.25l0.97 0.32 6.93 30.85c-0.04,1.23 -0.8,2.81 -1.22,4 -0.61,1.73 -64.84,14.05 -76.24,16.35 -2.93,0.59 -8.06,1.96 -10.75,2.09 -3.78,-10.66 -9.86,-31.05 -13.23,-42.5 -1.07,-3.64 -2.22,-7.04 -3.31,-10.62 -1.71,-5.62 -0.89,-5.72 -6.58,-7.34 -3.26,-0.94 -9.47,-3.55 -9.55,1.53 -0.09,5.32 7.7,2.75 9.2,5.93l2.04 6.27c2.91,9.74 14.78,45.45 15.68,51.52 -3.52,1.34 -24.66,14.28 -29.77,17.24 -1.42,0.82 -4.48,2.49 -6.85,3.92 -1.55,1.07 -2.99,2.02 -3.56,2.41 -0.44,0.29 -0.92,0.49 -1.4,0.58zm157.88 13c0.34,1.67 0.45,1 0.12,2.38 -0.37,1.61 -1.65,3.22 -3.26,3.64 -0.59,0.15 -1.2,0.21 -1.86,0.18 -2.41,-0.11 -1.08,-0.03 -1.1,-0.33 0.31,1.35 0.93,3.24 -0.38,4.67 0.93,1.25 -0.43,0.55 0.6,0.12 0.05,-0.03 0.42,-0.45 0.53,-0.5 0,1.22 0.32,4.84 0.53,6.35 0.7,4.9 0.72,7.1 0.01,12.36 -0.33,2.46 0.33,4.91 -2.89,4.07 1.22,-0.39 5.02,0.77 14.82,-2.11l-0.07 -0.21c1.01,-0.02 1.98,-0.35 2.69,-1l0.05 0.02c2.66,-1.78 6.71,-3.81 7.97,-5.93l-0.07 -0.09c0.12,-0.11 0.23,-0.24 0.34,-0.37 0.14,0.05 0.29,0.11 0.46,0.17 0.49,-0.7 0.52,-0.77 0.5,-0.82 0.45,-0.38 0.77,-0.82 0.99,-1.27 0.34,-0.27 0.89,-0.86 1.78,-2.13 0.99,-1.42 2.56,-3.97 3.19,-6.03l-0.44 -0.28c0.11,-0.09 0.22,-0.18 0.32,-0.28 0.36,0.12 0.34,-0.09 0.98,-1.23l-0.04 -0.05c0.17,-0.35 0.3,-0.72 0.37,-1.1 2.36,-9.09 0.59,-10.26 1.12,-13.87 -0.02,2.16 0.62,0.74 -0.92,1.6 -0.15,0.09 -1.34,0.35 -1.59,0.4 -8.81,1.66 -9.78,1.91 -16.54,1.67 6.76,0.24 7.73,-0.01 16.54,-1.67 0.25,-0.05 1.44,-0.31 1.59,-0.4 1.54,-0.86 0.9,0.56 0.92,-1.6 -0.58,-2.3 -0.88,-3.98 -1.67,-6.24 -0.34,-0.99 -0.68,-1.7 -1.12,-2.63 -1.44,-3.06 -0.76,-0.75 -1.85,-3.42l-5.21 -6.42c-0.59,-1.21 -1.87,-2.07 -3.15,-2.43l-3.6 -2.51c-1.73,-0.92 -4.31,-2.16 -6.56,-2.5 -0.5,-0.25 -1.06,-0.41 -1.62,-0.47 -0.48,-0.13 -0.94,-0.19 -1.37,-0.2l-0.01 -0.03c-2.35,-0.79 -5.26,-0.71 -7.75,-0.52 -0.02,2.06 2.86,15.16 4.02,18.74l0 0.1c0.01,0.43 0.93,4.67 1.9,8.68 0.05,0.46 0.1,0.91 0.16,1.37l0.07 -0.01c0.08,0.24 0.18,0.49 0.29,0.72l0.21 1.41 0.16 0 -0.16 0zm-130.13 -21.59c2.42,4.88 5.11,10.03 5.69,16.19l-11.41 0.86c-0.98,-3.97 -2.19,-8.41 -4.34,-11.09l-6.77 3.94c-1.44,1.04 -1.54,1.21 -1.32,1.22 -0.2,0.19 -0.39,0.41 -0.57,0.66l-0.02 0.02c-0.86,0.37 -1.69,0.77 -2.44,1.25 -0.9,0.57 -8.02,3.25 -10.16,5.53l1.05 2.07 39.36 -2.19c1.51,-4.2 1.84,-7.52 6.05,-10.93 1.29,-1.04 2.31,-1.44 3.57,-2.5 -0.27,-2.41 -2.45,-12.44 -3.44,-13.91l-15.25 8.88zm-21.15 -87.66c2.97,0.86 23.18,6.35 24.46,5.78 1.25,-0.57 3.68,-3.97 9.44,-5.92 4.67,-1.58 8.51,-0.57 12.33,-3.01 -0.14,-4.69 -6.49,-3.25 -10.21,-3.06 -8.15,0.42 -19.81,0.7 -27.85,0.18 -4.68,-0.3 -8.44,1.17 -8.17,6.03zm43.94 80.18l2.38 10.79c4.77,0.05 5.97,0.63 9.65,1.92l13.94 -17.97 -25.97 5.26zm-5.4 36.14c1.83,2.66 7.05,5.85 11.59,4.07l-2.22 -5.81c-2.35,-0.54 -2.55,-0.76 -4.36,-1.55l-5.01 3.29zm12.18 -13.05c2.08,0.9 1.6,1.48 2.99,3.36l6.08 -0.03c-0.53,-4.46 -3.91,-8.01 -7.21,-9.3 -0.94,1.23 -1.49,4.24 -1.86,5.97zm-12.11 -3.21l0.99 1.1c0.95,0.79 2.68,1.57 3.91,2.73l3.94 -1.76 1.68 -5.69c-4.65,-0.87 -8.46,1.87 -10.52,3.62zm12.89 13.33l2.26 5.67c2.85,-1.13 5.57,-4.9 6.14,-9.17l-6.19 0.11c-0.92,1.49 -1.62,2.44 -2.21,3.39zm-15.11 0.13c1.59,-0.46 2.46,-1.39 3.89,-2.28 2.52,-1.58 1.26,-1.04 1.63,-4.5 -1.74,-1.01 -3.46,-2.42 -5.13,-3.34 -2.19,2.65 -1.1,7.16 -0.39,10.12z"/>
  </g>
 </g>
</svg>
